<mxfile host="app.diagrams.net" modified="2022-01-15T14:46:13.298Z" agent="5.0 (Macintosh; Intel Mac OS X 10_15_2) AppleWebKit/605.1.15 (KHTML, like Gecko) Version/13.0.4 Safari/605.1.15" etag="HoDLo3H6uBjf34ACDqjx" version="16.2.4" type="github">
  <diagram id="UEvG2I-eYMEd8Tn-voCP" name="Page-1">
    <mxGraphModel dx="771" dy="455" grid="1" gridSize="10" guides="1" tooltips="1" connect="1" arrows="1" fold="1" page="1" pageScale="1" pageWidth="850" pageHeight="1100" math="0" shadow="0">
      <root>
        <mxCell id="0" />
        <mxCell id="1" parent="0" />
        <mxCell id="YDrTK1elxlJmgxnKA0oE-3" value="" style="edgeStyle=orthogonalEdgeStyle;rounded=0;orthogonalLoop=1;jettySize=auto;html=1;" edge="1" parent="1" source="YDrTK1elxlJmgxnKA0oE-1" target="YDrTK1elxlJmgxnKA0oE-2">
          <mxGeometry relative="1" as="geometry" />
        </mxCell>
        <mxCell id="YDrTK1elxlJmgxnKA0oE-4" value="投资10%回报" style="edgeLabel;html=1;align=center;verticalAlign=middle;resizable=0;points=[];" vertex="1" connectable="0" parent="YDrTK1elxlJmgxnKA0oE-3">
          <mxGeometry x="-0.0181" relative="1" as="geometry">
            <mxPoint as="offset" />
          </mxGeometry>
        </mxCell>
        <mxCell id="YDrTK1elxlJmgxnKA0oE-1" value="今天的100美元" style="rounded=1;whiteSpace=wrap;html=1;" vertex="1" parent="1">
          <mxGeometry x="180" y="360" width="120" height="60" as="geometry" />
        </mxCell>
        <mxCell id="YDrTK1elxlJmgxnKA0oE-2" value="一年后的110美元" style="rounded=1;whiteSpace=wrap;html=1;" vertex="1" parent="1">
          <mxGeometry x="440" y="360" width="120" height="60" as="geometry" />
        </mxCell>
        <mxCell id="YDrTK1elxlJmgxnKA0oE-7" value="也就是今天的100美元" style="rounded=1;whiteSpace=wrap;html=1;" vertex="1" parent="1">
          <mxGeometry x="180" y="460" width="120" height="60" as="geometry" />
        </mxCell>
        <mxCell id="YDrTK1elxlJmgxnKA0oE-9" style="edgeStyle=orthogonalEdgeStyle;rounded=0;orthogonalLoop=1;jettySize=auto;html=1;entryX=1;entryY=0.5;entryDx=0;entryDy=0;" edge="1" parent="1" source="YDrTK1elxlJmgxnKA0oE-8" target="YDrTK1elxlJmgxnKA0oE-7">
          <mxGeometry relative="1" as="geometry" />
        </mxCell>
        <mxCell id="YDrTK1elxlJmgxnKA0oE-10" value="要求10%的回报" style="edgeLabel;html=1;align=center;verticalAlign=middle;resizable=0;points=[];" vertex="1" connectable="0" parent="YDrTK1elxlJmgxnKA0oE-9">
          <mxGeometry x="-0.0089" y="1" relative="1" as="geometry">
            <mxPoint as="offset" />
          </mxGeometry>
        </mxCell>
        <mxCell id="YDrTK1elxlJmgxnKA0oE-8" value="一年后得到的110美元" style="rounded=1;whiteSpace=wrap;html=1;" vertex="1" parent="1">
          <mxGeometry x="440" y="460" width="120" height="60" as="geometry" />
        </mxCell>
        <mxCell id="YDrTK1elxlJmgxnKA0oE-18" value="" style="edgeStyle=orthogonalEdgeStyle;rounded=0;orthogonalLoop=1;jettySize=auto;html=1;" edge="1" parent="1" source="YDrTK1elxlJmgxnKA0oE-16" target="YDrTK1elxlJmgxnKA0oE-17">
          <mxGeometry relative="1" as="geometry" />
        </mxCell>
        <mxCell id="YDrTK1elxlJmgxnKA0oE-21" value="减去" style="edgeLabel;html=1;align=center;verticalAlign=middle;resizable=0;points=[];" vertex="1" connectable="0" parent="YDrTK1elxlJmgxnKA0oE-18">
          <mxGeometry x="-0.0318" y="1" relative="1" as="geometry">
            <mxPoint as="offset" />
          </mxGeometry>
        </mxCell>
        <mxCell id="YDrTK1elxlJmgxnKA0oE-16" value="经营产生的现金流&lt;br&gt;（CFO）" style="rounded=1;whiteSpace=wrap;html=1;" vertex="1" parent="1">
          <mxGeometry x="180" y="130" width="120" height="60" as="geometry" />
        </mxCell>
        <mxCell id="YDrTK1elxlJmgxnKA0oE-20" value="" style="edgeStyle=orthogonalEdgeStyle;rounded=0;orthogonalLoop=1;jettySize=auto;html=1;" edge="1" parent="1" source="YDrTK1elxlJmgxnKA0oE-17" target="YDrTK1elxlJmgxnKA0oE-19">
          <mxGeometry relative="1" as="geometry" />
        </mxCell>
        <mxCell id="YDrTK1elxlJmgxnKA0oE-23" value="等于" style="edgeLabel;html=1;align=center;verticalAlign=middle;resizable=0;points=[];" vertex="1" connectable="0" parent="YDrTK1elxlJmgxnKA0oE-20">
          <mxGeometry x="-0.0318" y="-1" relative="1" as="geometry">
            <mxPoint y="-1" as="offset" />
          </mxGeometry>
        </mxCell>
        <mxCell id="YDrTK1elxlJmgxnKA0oE-17" value="资本开支&lt;br&gt;（Capex）" style="rounded=1;whiteSpace=wrap;html=1;" vertex="1" parent="1">
          <mxGeometry x="380" y="130" width="120" height="60" as="geometry" />
        </mxCell>
        <mxCell id="YDrTK1elxlJmgxnKA0oE-33" value="" style="edgeStyle=orthogonalEdgeStyle;rounded=0;orthogonalLoop=1;jettySize=auto;html=1;" edge="1" parent="1" source="YDrTK1elxlJmgxnKA0oE-19" target="YDrTK1elxlJmgxnKA0oE-32">
          <mxGeometry relative="1" as="geometry" />
        </mxCell>
        <mxCell id="YDrTK1elxlJmgxnKA0oE-19" value="自由现金流（FCF）" style="rounded=1;whiteSpace=wrap;html=1;" vertex="1" parent="1">
          <mxGeometry x="580" y="130" width="120" height="60" as="geometry" />
        </mxCell>
        <mxCell id="YDrTK1elxlJmgxnKA0oE-29" style="edgeStyle=orthogonalEdgeStyle;rounded=0;orthogonalLoop=1;jettySize=auto;html=1;entryX=0.5;entryY=0;entryDx=0;entryDy=0;" edge="1" parent="1" source="YDrTK1elxlJmgxnKA0oE-28" target="YDrTK1elxlJmgxnKA0oE-16">
          <mxGeometry relative="1" as="geometry" />
        </mxCell>
        <mxCell id="YDrTK1elxlJmgxnKA0oE-34" value="造成" style="edgeLabel;html=1;align=center;verticalAlign=middle;resizable=0;points=[];" vertex="1" connectable="0" parent="YDrTK1elxlJmgxnKA0oE-29">
          <mxGeometry x="-0.1297" y="-1" relative="1" as="geometry">
            <mxPoint as="offset" />
          </mxGeometry>
        </mxCell>
        <mxCell id="YDrTK1elxlJmgxnKA0oE-28" value="收入-成本-税费" style="rounded=1;whiteSpace=wrap;html=1;" vertex="1" parent="1">
          <mxGeometry x="180" y="20" width="120" height="60" as="geometry" />
        </mxCell>
        <mxCell id="YDrTK1elxlJmgxnKA0oE-31" style="edgeStyle=orthogonalEdgeStyle;rounded=0;orthogonalLoop=1;jettySize=auto;html=1;entryX=0.5;entryY=0;entryDx=0;entryDy=0;" edge="1" parent="1" source="YDrTK1elxlJmgxnKA0oE-30" target="YDrTK1elxlJmgxnKA0oE-17">
          <mxGeometry relative="1" as="geometry" />
        </mxCell>
        <mxCell id="YDrTK1elxlJmgxnKA0oE-35" value="造成" style="edgeLabel;html=1;align=center;verticalAlign=middle;resizable=0;points=[];" vertex="1" connectable="0" parent="YDrTK1elxlJmgxnKA0oE-31">
          <mxGeometry x="-0.1081" y="-1" relative="1" as="geometry">
            <mxPoint x="1" y="-2" as="offset" />
          </mxGeometry>
        </mxCell>
        <mxCell id="YDrTK1elxlJmgxnKA0oE-30" value="购买厂房、设备等" style="rounded=1;whiteSpace=wrap;html=1;" vertex="1" parent="1">
          <mxGeometry x="380" y="20" width="120" height="60" as="geometry" />
        </mxCell>
        <mxCell id="YDrTK1elxlJmgxnKA0oE-32" value="通过分红、回购&lt;br&gt;回报股东" style="rounded=1;whiteSpace=wrap;html=1;" vertex="1" parent="1">
          <mxGeometry x="580" y="220" width="120" height="60" as="geometry" />
        </mxCell>
      </root>
    </mxGraphModel>
  </diagram>
</mxfile>
